<?xml version="1.0" encoding="utf-8"?>
<!-- Generator: Adobe Illustrator 24.1.3, SVG Export Plug-In . SVG Version: 6.00 Build 0)  -->
<svg version="1.1" id="Layer_1" xmlns="http://www.w3.org/2000/svg" xmlns:xlink="http://www.w3.org/1999/xlink" x="0px" y="0px"
	 viewBox="0 0 500 50" style="enable-background:new 0 0 500 50;" xml:space="preserve">
<style type="text/css">
	.st0{fill:#EC1C24;}
</style>
<path class="st0" d="M48.9,5.73l-7.43,9.85c0,0-19.71,0-20.75,0s-4.67,0.06-6.28,6.4c-1.61,6.34-3.05,10.26-3.23,11.35
	c-0.17,1.1-1.27,3.92,2.59,3.98c3.86,0.06,31.81,0,31.81,0l8.93-31.7h10.37L60.6,21.35h22.53l4.84-15.96h10.2L86.02,46.59H75.76
	l4.55-15.39H57.72l-4.55,15.5H11.1c0,0-11.81-0.4-11.07-9.51c0,0,3.11-12.79,4.96-18.21C6.83,13.57,12.71,6.07,20.9,6.02
	C29.08,5.96,48.9,5.73,48.9,5.73z"/>
<path class="st0" d="M137.89,15.12l3-9.91h-24.72c0,0-12.62,0.06-17.06,9.34c-4.44,9.28-5.24,15.79-5.99,18.61
	c-0.75,2.82-1.73,12.85,8.01,13.02c9.74,0.17,28.3,0,28.3,0l2.77-9.62h-26.97c0,0-3.17-0.52-1.79-3.57
	c1.38-3.05,1.04-2.42,1.04-2.42h27.61l2.94-9.8h-27.95c0,0,0.46-5.59,3.98-5.59C114.55,15.18,137.89,15.12,137.89,15.12z"/>
<polygon class="st0" points="197.65,4.81 195,14.78 211.25,14.78 202.2,45.84 212.63,45.84 221.8,14.6 238.11,14.78 241.05,4.81 "/>
<path class="st0" d="M345.65,45.26h-9.91c0,0,6.63-23.28,7.03-25.3c0.4-2.02,3.34-8.99,6.57-11.35c3.23-2.36,6.8-4.73,12.45-4.78
	c5.65-0.06,18.44,0.06,18.44,0.06s12.22,0.69,10.6,9.39c-1.61,8.7-8.59,31.52-8.59,31.52h-10.32l7.09-24.55c0,0,2.65-6.69-2.94-6.74
	c-5.99-0.06-16.19,0-16.19,0s-5.3-0.58-6.86,6.17C351.47,26.42,345.65,45.26,345.65,45.26z"/>
<polygon class="st0" points="395.32,44.97 385.3,44.97 397.28,3.88 407.66,3.77 "/>
<path class="st0" d="M326.03,32.1c-0.61,2.07-2.88,3.73-5.08,3.71l-21.23-0.22c-2.19-0.02-3.48-1.72-2.87-3.79l4.08-13.84
	c0.61-2.07,2.88-3.74,5.08-3.71l21.23,0.22c2.19,0.02,3.48,1.72,2.87,3.79L326.03,32.1z M329.34,4.11h-18.67c0,0-8.01,0-12.16,2.88
	c-4.15,2.88-6.57,5.42-8.53,11.99c0,0-3.11,10.89-3.98,13.72c-0.86,2.82-2.13,12.39,7.15,12.51c9.28,0.12,24.38,0,24.38,0
	s14.18-0.63,17.46-10.37c3.29-9.74,5.53-17.81,5.53-17.81S344.49,4.17,329.34,4.11z"/>
<path class="st0" d="M278.04,4.63c6.86,0.06,8.77,4.77,9.05,9.74c0.29,5.19-4.96,10.6-4.96,10.6c0.98,0.81,1.5,2.19,1.21,4.84
	c-0.27,2.53-4.55,15.56-4.55,15.56h-10.03c0,0,1.9-6.45,3.4-11.12c1.5-4.67-2.82-4.03-3.92-4.09c-0.86-0.04-20.98,0-20.98,0
	l-4.55,15.68h-10.43L244.1,4.46C244.1,4.46,271.19,4.58,278.04,4.63z M249.75,20.08h23.47c1.91,0,3.46-1.32,3.46-2.94l0,0
	c0-1.62-1.55-2.94-3.46-2.94h-21.51L249.75,20.08z"/>
<path class="st0" d="M182.72,45.99c0,0,7.45-25.2,7.99-27.74c0.54-2.54,2.23-12.83-8.68-13.06c-10.91-0.23-22.98,0-22.98,0
	s-13.29-0.23-16.83,9.37c-3.53,9.61-9.91,31.43-9.91,31.43h10.45l8.3-27.66c0,0,1.38-3.61,4.61-3.54c3.23,0.08,6.45-0.92,4.46,5.46
	c-2,6.38-7.45,25.9-7.45,25.9h10.14l8.38-28.2c0,0,0.31-3.23,3.84-3.15c3.53,0.08,6.53-0.46,4.76,5.61
	c-1.77,6.07-7.45,25.82-7.45,25.82L182.72,45.99z"/>
<path class="st0" d="M491.47,13.26"/>
<path class="st0" d="M457.81,6.57c4.07-3.54,10.83-3.38,10.83-3.38c1,0,31.35,0,31.35,0l-8.08,10.13h-28.04
	c-1.53,0-3.01,1.18-3.31,2.63l0,0c-0.3,1.45,0.71,2.63,2.24,2.63h23.74c9.91,0.78,9.22,9.28,9.22,9.28
	c0.69,5.53-5.61,11.53-5.61,11.53c-4.84,5.3-15.98,4.84-15.98,4.84s-54.63,0.23-62.86,0.08c-8.22-0.15-10.45-4.69-7.45-17.21
	c3-12.52,6.76-17.14,11.53-20.67c4.77-3.53,12.95-3,12.95-3h22.48l-2.84,10.07l-5.31-0.01h-21.43c-1.94,0-3.93,1.6-4.44,3.56
	l-3.72,14.25c-0.52,1.97,0.64,3.56,2.58,3.56h21.43l22.66-0.16h21.9c1.65,0,3.3-1.34,3.69-3l0,0c0.38-1.66-0.65-3-2.31-3h-21.9
	c0,0-10.06-0.23-10.76-6.84C449.67,15.26,453.13,10.64,457.81,6.57z"/>
</svg>
